<?xml version="1.0" standalone="no"?>
<!DOCTYPE svg PUBLIC "-//W3C//DTD SVG 20010904//EN"
 "http://www.w3.org/TR/2001/REC-SVG-20010904/DTD/svg10.dtd">
<svg version="1.0" xmlns="http://www.w3.org/2000/svg"
 width="387.000000pt" height="387.000000pt" viewBox="0 0 387.000000 387.000000"
 preserveAspectRatio="xMidYMid meet">
<metadata>
Created by potrace 1.11, written by Peter Selinger 2001-2013
</metadata>
<g transform="translate(0.000000,387.000000) scale(0.100000,-0.100000)"
fill="#000000" stroke="none">
<path d="M1895 3623 c-752 -35 -1403 -566 -1589 -1294 -43 -169 -56 -286 -51
-464 2 -88 6 -171 8 -185 3 -14 8 -45 11 -70 4 -25 21 -96 37 -159 106 -401
361 -755 713 -991 174 -117 443 -227 620 -256 21 -3 48 -8 60 -10 150 -30 450
-23 628 16 452 98 826 354 1085 740 130 193 238 476 267 700 14 104 17 139 16
238 -1 142 0 132 -16 249 -79 591 -475 1111 -1024 1345 -246 105 -504 153
-765 141z m310 -252 c355 -59 673 -238 908 -512 75 -87 217 -312 205 -325 -3
-2 -19 1 -37 6 -48 14 -155 23 -256 23 -97 -1 -137 -6 -230 -28 -182 -43 -215
-39 -266 33 -109 153 -268 212 -449 168 l-71 -17 -36 32 c-81 71 -180 89 -266
49 -35 -17 -51 -19 -60 -11 -8 6 -33 57 -58 113 -36 87 -53 113 -105 164 -139
139 -236 155 -282 46 -11 -26 -34 -102 -51 -168 -27 -109 -77 -266 -101 -319
-9 -21 -18 -51 -25 -82 -2 -10 -7 -36 -12 -58 -12 -54 -8 -130 12 -198 l16
-55 -28 -53 c-55 -103 -154 -191 -323 -291 -47 -28 -87 -52 -89 -54 -2 -2 19
-27 48 -56 58 -58 91 -113 116 -190 30 -92 73 -156 173 -262 81 -85 102 -101
65 -46 -45 66 -80 139 -108 226 -32 97 -34 111 -42 211 -5 71 -3 84 11 89 11
4 27 -5 47 -27 21 -23 29 -28 24 -14 -4 11 -9 48 -12 82 -6 71 13 120 77 202
57 72 90 84 207 75 l97 -7 -32 39 c-18 21 -32 50 -32 64 0 41 53 120 137 205
159 161 271 243 358 263 117 26 206 -109 206 -311 0 -32 4 -55 9 -52 5 3 31
47 57 97 102 194 193 248 316 189 74 -36 125 -104 228 -309 103 -202 131 -276
132 -352 1 -40 -3 -52 -23 -69 -14 -11 -30 -20 -36 -21 -6 0 -17 -6 -23 -13
-14 -18 41 -35 136 -44 118 -10 152 -37 179 -144 28 -110 9 -206 -53 -264 -31
-28 -25 -31 24 -13 71 26 62 -26 -26 -147 -64 -88 -162 -187 -204 -208 -18 -8
-58 -27 -89 -42 -67 -31 -156 -107 -164 -141 -4 -17 -13 -24 -30 -24 -90 0
-173 -43 -198 -104 -12 -30 -20 -34 -97 -53 -124 -31 -291 -27 -419 11 -52 15
-120 39 -150 54 -51 25 -56 30 -62 69 -8 49 -38 111 -66 136 -12 11 -36 19
-56 19 -32 0 -37 4 -56 43 -25 52 -82 106 -147 138 -78 39 -87 40 -121 12 -25
-21 -38 -25 -76 -22 -52 5 -118 -20 -138 -52 -7 -12 -18 -21 -24 -21 -7 0 -32
33 -57 72 -91 148 -156 313 -192 490 -4 17 -13 81 -20 133 -6 41 -6 274 0 305
2 14 6 46 9 71 22 190 119 431 249 624 86 126 266 305 392 387 182 120 408
211 585 235 19 2 58 8 85 12 70 10 307 5 390 -8z m-822 -276 c81 -70 118 -140
161 -304 l28 -103 -26 -27 c-14 -14 -50 -39 -81 -56 -65 -35 -79 -31 -112 35
-20 39 -23 59 -23 172 0 70 -4 129 -8 132 -5 3 -9 0 -9 -7 0 -7 -6 -50 -13
-97 -19 -123 -19 -159 -3 -214 8 -26 15 -60 15 -75 1 -40 -35 -103 -99 -169
-88 -92 -134 -93 -154 -4 -12 57 -4 96 47 234 24 65 51 148 60 185 55 243 70
291 101 326 23 24 67 14 116 -28z m1862 -585 c94 -25 124 -64 100 -134 -25
-71 -167 -266 -276 -378 -115 -118 -189 -125 -238 -24 -44 90 -33 167 30 198
19 9 73 28 120 42 90 27 142 56 167 94 14 21 10 20 -49 -12 -49 -27 -86 -38
-159 -49 -53 -8 -117 -24 -143 -35 l-48 -21 -49 48 c-40 37 -50 54 -50 80 0
89 73 146 235 184 114 27 270 30 360 7z m179 -267 c48 -205 54 -369 20 -598
-18 -125 -95 -342 -167 -470 -78 -137 -270 -375 -303 -375 -7 0 -14 12 -17 28
-16 77 -100 149 -162 138 -17 -3 -28 2 -39 19 -14 22 -14 24 3 30 39 12 139
84 217 157 61 57 95 80 135 93 30 10 57 19 61 21 4 3 -22 47 -56 98 -111 166
-168 355 -132 440 8 18 40 53 73 80 86 67 181 192 312 409 12 20 24 37 26 37
2 0 15 -48 29 -107z m-2272 -1275 c61 -107 60 -112 -32 -158 -25 -13 -46 -23
-46 -24 -1 -1 -11 8 -23 18 -29 26 -27 78 5 146 26 56 42 80 53 80 4 0 23 -28
43 -62z m-284 13 c1 -16 9 -45 17 -65 20 -47 8 -45 -32 5 -31 39 -32 42 -17
65 21 32 29 30 32 -5z m1762 -74 c0 -1 9 -27 20 -57 26 -71 26 -130 0 -158
-13 -13 -27 -19 -38 -15 -29 11 -102 74 -102 89 0 15 99 142 113 143 4 1 7 0
7 -2z m256 -90 c3 -13 4 -41 2 -62 -3 -34 -9 -42 -67 -82 -35 -24 -66 -41 -69
-39 -2 3 16 33 40 68 25 35 51 80 57 101 14 42 28 48 37 14z m-1517 -13 c30
-67 22 -164 -16 -178 -18 -7 -83 22 -90 41 -3 8 6 27 21 42 14 15 33 48 42 74
9 26 19 47 23 47 4 0 13 -12 20 -26z m1027 -157 c28 -55 23 -70 -31 -93 -32
-13 -60 -5 -81 25 -18 23 7 92 50 139 l21 23 8 -23 c5 -13 19 -45 33 -71z
m-779 -17 c154 -58 315 -61 463 -9 30 10 59 20 63 22 5 1 10 -25 12 -58 1 -33
8 -82 14 -109 6 -27 9 -51 6 -54 -9 -10 -327 -11 -385 -2 -136 21 -207 39
-328 82 -48 17 -89 32 -90 34 -2 1 10 17 27 34 29 31 46 67 55 120 3 14 5 26
5 27 1 1 23 -13 51 -32 27 -18 76 -43 107 -55z m1003 -70 c0 -5 -12 -13 -27
-18 -16 -6 -57 -22 -93 -36 l-65 -25 39 35 c39 34 79 51 124 51 12 0 22 -3 22
-7z"/>
<path d="M1525 2421 c-16 -10 -52 -38 -78 -61 l-49 -43 29 -15 c15 -8 42 -27
58 -42 42 -39 89 -50 145 -34 45 13 130 76 130 96 0 19 -54 85 -83 101 -39 23
-114 22 -152 -2z m135 -28 c50 -29 60 -82 19 -103 -14 -8 -21 -6 -29 10 -12
22 -46 27 -53 8 -2 -7 0 -21 5 -31 21 -40 -61 -33 -88 8 -17 26 -13 52 14 82
39 45 85 54 132 26z"/>
<path d="M2257 2310 c-31 -17 -64 -30 -72 -30 -8 0 -15 -2 -15 -5 0 -3 24 -38
54 -79 82 -110 144 -130 244 -80 61 30 65 49 28 122 -54 105 -130 128 -239 72z
m120 -15 c28 -8 54 -49 55 -87 1 -22 -7 -38 -26 -55 -34 -29 -70 -29 -98 -1
-19 19 -20 22 -5 33 22 16 22 44 1 52 -11 4 -22 -1 -30 -12 -10 -14 -17 -16
-25 -8 -16 16 18 70 51 82 25 9 34 9 77 -4z"/>
<path d="M1715 2134 c-5 -2 -29 -8 -53 -14 -94 -24 -143 -107 -86 -144 37 -25
58 -17 59 23 1 43 28 63 80 59 37 -3 40 -5 40 -33 0 -26 -7 -34 -48 -55 -69
-36 -75 -51 -32 -92 19 -18 59 -42 87 -54 46 -17 53 -23 50 -45 -5 -36 -48
-105 -80 -127 -57 -39 -140 -65 -189 -58 -77 10 -150 66 -184 140 -18 40 -19
40 -19 11 1 -51 19 -115 75 -255 36 -91 63 -179 81 -271 27 -131 27 -140 15
-219 -27 -164 -18 -197 68 -243 71 -39 144 -56 226 -53 129 4 188 55 282 244
66 133 114 202 217 310 86 90 118 140 134 204 14 55 16 125 4 132 -5 3 -33
-13 -63 -36 -81 -62 -133 -82 -193 -75 -74 8 -137 40 -220 112 -79 69 -106
112 -106 169 0 33 2 36 30 36 17 0 32 0 35 0 11 0 121 43 129 51 17 15 -4 57
-44 83 -47 31 -52 61 -15 78 48 22 118 -39 95 -82 -10 -18 -9 -25 3 -37 20
-20 61 -10 93 22 20 21 22 27 13 54 -22 62 -127 129 -245 157 -56 13 -206 18
-239 8z m-155 -644 c0 -21 52 -42 122 -47 40 -3 88 -12 106 -19 33 -14 33 -14
31 -76 -2 -60 -6 -81 -29 -203 -18 -96 -23 -151 -11 -139 10 9 18 39 45 174
32 159 72 227 143 251 62 20 143 11 143 -17 0 -7 13 -28 28 -45 23 -25 38 -32
78 -36 43 -4 54 -1 92 27 37 27 42 28 32 9 -7 -12 -41 -49 -75 -83 -104 -100
-164 -184 -233 -323 -35 -73 -76 -145 -91 -159 -65 -65 -157 -81 -264 -46
-139 46 -157 87 -133 312 7 64 5 88 -14 155 -43 156 -42 206 2 263 12 14 28
16 28 2z"/>
</g>
</svg>
